<svg xmlns="http://www.w3.org/2000/svg" width="2500" height="2500" viewBox="0 0 192.756 192.756"><g fill-rule="evenodd" clip-rule="evenodd"><path fill="#fff" d="M0 0h192.756v192.756H0V0z"/><path d="M60.66 46.746l-.208-.827s-.311-.838.105-1.356.417-.195.417-1.139c0-.942.311-1.77.621-2.596.313-.827-.009-1.149.624-1.874.637-.723.221-1.447 1.053-1.033.833.413 1.249 1.033 1.249.31 0-.724-.208-.528.103-1.666.311-1.139.323-4.265.637-5.194.311-.929 1.144-2.7 1.662-3.734.521-1.035 2.093-4.778 2.922-5.504.832-.723 3.976-5.296 7.523-7.479 3.547-2.183 8.249-4.78 10.964-5.401 2.714-.62 4.184-.827 4.911-.723.73.103 5.548-.104 7.417.103 1.873.206 4.6.413 6.057.931 1.453.516 5.832 1.251 10.018 4.779 4.18 3.527 7.43 7.182 8.363 9.353.936 2.172 2.82 4.574 3.547 8.825.729 4.252.936 8.618.936 8.618s.43-.723 1.053-.207c.625.518 1.561-.426 1.662 1.344.105 1.77.209 4.769 0 5.504-.205.735 0 2.815-.414 3.54-.416.723-1.986 3.412-2.092 4.458-.104 1.047-.834 5-.727 6.24.102 1.242-.314 2.804-.314 3.424 0 .621-.947 3.437-1.156 4.471-.207 1.033-.934 4.676-1.037 5.709-.105 1.033-.094 7.273-1.146 10.492-1.049 3.215-2.713 9.353-2.816 10.8-.105 1.447-.221 3.309-.531 4.354-.314 1.047-.209 2.299-.521 3.746-.311 1.449-1.883 8.916-2.299 9.756s-2.184 5.389-2.184 5.918c0 .527.52 1.885.207 3.127-.312 1.238-.219 3.848-.844 5.191s-.83 3.113-1.246 3.734-1.363 2.895-1.986 4.045c-.625 1.148-1.352 2.609-1.457 3.643-.104 1.033-1.467 2.701-1.572 3.631-.102.932 0 1.355-.102 2.391l-.209 2.078s1.467 1.668 2.4 3.113c.939 1.449 1.355 2.805 1.355 2.805s.605.035 1.127 1.186c.52 1.148 2.105 6.605 2.105 6.605l-.311.414 1.988 3.527.621 1.252.535.518 1.66 3.734 2.613 8.836s-.209.104-.209.826c0 .727-.207 1.449-.207 1.449s1.143 1.459-29.036 1.459c-26.632 0-29.558-2.596-29.558-2.596v-2.287l.429-.621 2.612-7.379s-.429-.309-.637-.93c-.208-.621.093-1.148.521-1.77.426-.621 1.258-2.389 1.258-2.389l.518-.518 2.196-4.367s0-.102.208-1.137c.208-1.033 2.112-6.018 2.112-6.018s.292-.766.811-.766c.522 0 .625-.102.625-.102s1.364-3.387 2.093-4.535c.727-1.148 2.091-3.85 2.091-3.85s-.637-1.979-.947-2.598c-.314-.621-.73-.713-.938-1.654-.205-.943-1.568-4.148-2.192-5.506-.625-1.355-1.55-3.527-1.976-4.984-.429-1.459-1.155-6.229-1.155-6.229s.726-2.195.31-3.953-1.027-8.1-1.767-11.732c-.739-3.631-1.47-6.744-1.572-8.1-.103-1.355-1.261-6.538-1.674-8.101-.416-1.563-.832-4.045-1.354-5.401-.518-1.356-1.245-3.539-1.037-4.159.208-.621.208-2.184.208-3.113 0-.932-.534-2.792-.534-3.941s.326-2.172.221-2.7c-.103-.53-1.05-1.862-.947-2.699.105-.84 0-2.714.105-3.645.103-.93 0-3.733 0-3.733s-.938-1.964-1.146-3.01c-.208-1.046-.727-2.817-.727-4.055 0-1.242-.323-2.494-.531-3.527-.208-1.035-.314-1.563-.73-2.805-.413-1.241-.727-2.596-.727-2.596z" fill="#e4c456" stroke="#000" stroke-width=".674" stroke-miterlimit="2.613"/><path d="M60.66 46.746l-.208-.826s-.311-.839.105-1.356.417-.195.417-1.139c0-.942.311-1.77.621-2.596.313-.827-.009-1.149.624-1.874.637-.723.221-1.447 1.053-1.033.833.412 1.249 1.033 1.249.31 0-.724-.208-.528.103-1.666s.323-4.265.637-5.194c.311-.929 1.144-2.7 1.662-3.734.521-1.035 2.093-4.778 2.922-5.504.832-.723 3.976-5.296 7.523-7.479 3.547-2.182 8.249-4.78 10.964-5.401 2.714-.62 4.184-.827 4.911-.723.73.103 5.548-.104 7.417.103 1.873.206 4.6.413 6.057.931 1.453.516 5.832 1.251 10.018 4.779 4.18 3.528 7.43 7.182 8.363 9.353.936 2.172 2.82 4.575 3.547 8.825.729 4.252.936 8.618.936 8.618s.43-.723 1.053-.207c.625.518 1.561-.426 1.662 1.344.105 1.77.209 4.769 0 5.504-.205.735 0 2.815-.414 3.54-.416.723-1.986 3.412-2.092 4.458-.104 1.047-.834 5-.727 6.24.102 1.242-.314 2.804-.314 3.424 0 .621-.947 3.437-1.156 4.471-.207 1.033-.934 4.676-1.037 5.71-.105 1.033-.094 7.272-1.146 10.492-1.049 3.215-2.713 9.353-2.816 10.8-.105 1.447-.221 3.309-.531 4.354-.314 1.047-.209 2.299-.521 3.746-.311 1.449-1.883 8.916-2.299 9.756s-2.184 5.389-2.184 5.918c0 .527.52 1.885.207 3.127-.312 1.24-.219 3.848-.844 5.191s-.83 3.113-1.246 3.734-1.363 2.895-1.986 4.045c-.625 1.148-1.352 2.609-1.457 3.643-.104 1.033-1.467 2.701-1.572 3.631-.102.932 0 1.355-.102 2.391-.107 1.035-.209 2.078-.209 2.078s1.467 1.668 2.4 3.113c.939 1.449 1.355 2.805 1.355 2.805s.605.035 1.127 1.186c.52 1.148 2.105 6.605 2.105 6.605l-.311.414 1.988 3.527.621 1.252.535.518 1.66 3.734 2.613 8.836s-.209.104-.209.826c0 .727-.207 1.449-.207 1.449s1.143 1.459-29.036 1.459c-26.632 0-29.558-2.596-29.558-2.596v-2.287l.429-.621 2.612-7.377s-.429-.311-.637-.932c-.208-.621.093-1.148.521-1.77.426-.621 1.258-2.389 1.258-2.389l.518-.518 2.196-4.367s0-.102.208-1.137c.208-1.033 2.112-6.018 2.112-6.018s.292-.764.811-.764c.522 0 .625-.104.625-.104s1.364-3.387 2.093-4.535c.727-1.148 2.091-3.85 2.091-3.85s-.637-1.979-.947-2.598c-.314-.621-.73-.713-.938-1.654-.205-.943-1.568-4.148-2.192-5.506-.625-1.355-1.55-3.527-1.976-4.984-.429-1.459-1.155-6.229-1.155-6.229s.726-2.195.31-3.953-1.027-8.1-1.767-11.73c-.739-3.633-1.47-6.746-1.572-8.102-.103-1.355-1.261-6.538-1.674-8.101-.416-1.563-.832-4.045-1.354-5.401-.518-1.356-1.245-3.539-1.037-4.159.208-.621.208-2.184.208-3.113 0-.932-.534-2.792-.534-3.941s.326-2.172.221-2.7c-.103-.53-1.05-1.863-.947-2.7.105-.84 0-2.714.105-3.645.103-.93 0-3.733 0-3.733s-.938-1.964-1.146-3.01c-.208-1.047-.727-2.817-.727-4.056 0-1.242-.323-2.494-.531-3.527-.208-1.035-.314-1.563-.73-2.805-.413-1.241-.727-2.596-.727-2.596z" fill="#e4c456"/><path d="M64.934 179.658c.443.297 1.207.674 2.51 1.02 5.656 1.504 17.72 1.654 17.72 1.654l-8.902-1.504-10.658-2.762-.241.682-.429.621v.289z" fill="#f7dea4"/><path d="M84.71 172.803s-1.121-.746-.674-1.572c.448-.828.749-.979.749-.979s-.907.07-.376-.375c.528-.443.681-1.047.681-1.047s-.901.227-1.432-.15c-.528-.375-1.51-.602-1.51-.602s.376.758.15 1.203c-.228.445-1.277 1.348-2.109 1.348s-1.212-.152-1.212-.152l-.521 1.799-.981-.074s.454-2.018.755-2.768c.301-.754.528-1.656.528-1.656-.375-.451-.907-.602-.907-.602s-1.429 3.979-1.957 4.281c-.531.299-1.438.6-1.817.299-.375-.299-.603-.9-.603-.9l.149-.678.152-1.572 1.06-1.43-1.06.828-1.882.826.074.604s-.379.443.074.594c.454.15.985-.076.985-.076s.226.602-.606 1.129c-.833.525-2.109.969-2.034-.377.074-1.348.823-2.85 1.127-3.076.301-.225.754-.678.754-.678h1.808l1.212.152.528.301-.68 1.953.976-.525.531-1.277-1.053-.82-1.662-.301-1.354.225 1.202-2.105 1.286-1.195.755-.828.373-.301 1.739.152s.447 1.721.975 1.947c.528.225.528 1.129.907.902s.907-.451.907-.451-.755 1.203-.152.902c.606-.303 1.127-.451 1.127-.451s.311.525-.294.678l-.606.148 1.584.076s.301.451-.152.451c-.453 0-.68.074-.68.074l1.435.076.453.443.305.527.901.525.755.301.754-.301.826-.451-.22 1.053v.82l-.681.752-.226.525.757.453.597-.453-.295-.451.6-.9.149-.746-.454-.225.075-.752s.077-.076 2.64.076c2.566.148 8.148.299 8.148.299l.605 3.303-.605.15-.373-1.205-.375 1.875.225 1.129 7.312-.604-.453-1.271-1.277-.375-.227-1.949-.605-.074-.605-.377.301 2.775-.527.303-.379-3.604s.979-.076 2.867-.076c1.891 0 5.506-.074 5.506-.074l1.436 3.754.078 1.045-.758-1.348-.908-2.324-.453-.377-.295.451 1.279 3.07.756 1.73 5.582-.602-2.041-1.572-1.885-3.754s1.816.152 3.244.076l1.43-.076 1.74 2.926-1.664-3.15.455.074 1.812 3.303-1.738-3.979-2.336.301.074-.602-1.43-3.145-.377-.752-1.061.15 1.666 3.896-.379.074-1.74-3.67s1.514 3.596.682 3.746c-.834.15-4.676 0-4.676 0l-1.814.076-.748-3.521-1.285.15.453 3.445s-2.488 0-5.734-.074c-3.242-.076-4.522-.377-4.522-.377l.074-3.371h-1.056l-.379 3.371s-3.02.074-5.28-.074c-2.261-.152-4.448-.371-4.448-.371l.984-3.602-4.379-2.023-4.827-.076-1.056 1.799-.751.602-.981-.451.605-1.279-.379-.148-2.64 4.729-.319-.266-.342.342-.063.133.877-.057.755-.377s1.354.156 1.205.602c-.152.445-1.205 1.121-1.433 1.799-.227.676-1.661 2.398-1.889 2.172-.226-.225-.453-.752-.453-.752l-.77.668c.211.602.627.902.627.902l-.379 1.068 15.533 1.34 1.578-.975z" fill="#daaf53"/><path d="M75.734 23.292l-.14.066c-.314.143-.883.384-1.451.394-1.495.021-2.236-1.364-1.795-2.563.367-.995.972-1.997.972-1.997s1.205-1.526 2.827-3.139a29.593 29.593 0 0 1 2.202-1.995 83.71 83.71 0 0 1 4.56-2.56c3.504-1.214 7.687-2.372 10.66-2.372 1.494 0 3.268.003 4.628.145.684.07 1.441.188 2.053.439.453.186 1.949.98 1.469 2.65-.447 1.557-2.064 3.512-3.527 4.807-.572.502-1.455.945-2.278 1.306-.86.38-1.895.772-2.954 1.146a115.504 115.504 0 0 1-5.271 1.687c-.587.173-1.429.315-2.367.438-.838.108-1.767.204-2.643.312-.808.096-1.569.201-2.162.336a3.894 3.894 0 0 0-.338.088c-.27.448-.64 1.021-.985 1.417-.491.561-3.208 1.764-3.46-.605z" fill="#f7dea4"/><path d="M75.889 23.025a9.35 9.35 0 0 1-.367.179c-.313.144-.851.369-1.382.377-1.36.02-2.038-1.235-1.634-2.335.364-.98.954-1.96.954-1.96s1.192-1.511 2.805-3.115c.94-.936 2.124-2.011 3.393-2.886.707-.409 1.43-.816 2.152-1.207.127-.053.254-.103.382-.148 3.646-1.308 8.212-2.635 11.377-2.635 1.488 0 3.255.003 4.609.142.682.071 1.42.188 2.008.428.445.182 1.811.919 1.371 2.448-.434 1.509-2.025 3.438-3.48 4.726-.547.483-1.408.917-2.231 1.279-.857.378-1.888.769-2.941 1.14-2.057.726-4.2 1.372-5.262 1.683-.584.173-1.414.313-2.342.434-.839.11-1.764.206-2.644.312-.813.097-1.581.203-2.177.34-.183.042-.317.08-.413.113-.273.451-.652 1.045-1.003 1.447-.482.554-3.091 1.697-3.175-.762z" fill="#f8e1a8"/><path d="M76.06 22.743c-.208.116-.417.22-.609.308-.314.146-.823.355-1.313.363-1.23.017-1.839-1.107-1.469-2.108.354-.967.931-1.923.931-1.923s1.184-1.494 2.787-3.091c1.55-1.541 3.73-3.438 5.861-4.204 3.646-1.306 8.19-2.625 11.321-2.625 1.481 0 3.243.003 4.593.144.678.069 1.395.186 1.957.415.441.179 1.674.856 1.273 2.246-.42 1.461-1.979 3.364-3.43 4.646-.943.834-3.183 1.708-5.115 2.388a114.129 114.129 0 0 1-5.256 1.681c-.575.17-1.397.309-2.314.428-.838.109-1.764.205-2.64.311-.82.099-1.597.205-2.196.343a3.906 3.906 0 0 0-.49.139c-.273.454-.661 1.069-1.016 1.477-.477.543-2.969 1.624-2.875-.938z" fill="#f8e1ac"/><path d="M76.252 22.432c-.301.18-.603.342-.873.467-.313.142-.792.34-1.242.346-1.1.015-1.643-.979-1.311-1.883.351-.949.913-1.882.913-1.882s1.171-1.479 2.768-3.07c1.547-1.54 3.705-3.41 5.799-4.161 3.647-1.31 8.163-2.616 11.263-2.616 1.475 0 3.23.003 4.576.142.674.068 1.373.182 1.912.403.43.176 1.531.792 1.174 2.043-.406 1.415-1.934 3.29-3.379 4.565-.913.808-3.118 1.671-5.06 2.354a112.89 112.89 0 0 1-5.246 1.678c-.572.168-1.382.304-2.289.422-.839.11-1.765.207-2.641.312-.826.099-1.608.207-2.214.346a3.75 3.75 0 0 0-.566.167c-.273.457-.67 1.09-1.028 1.501-.475.544-2.844 1.557-2.556-1.134z" fill="#f8e3b0"/><path d="M76.46 22.107c-.395.249-.802.479-1.152.638-.314.144-.761.324-1.174.33-.97.016-1.444-.851-1.149-1.655.345-.935.895-1.844.895-1.844s1.158-1.464 2.746-3.045c1.547-1.54 3.684-3.386 5.74-4.124C86.008 11.098 90.503 9.8 93.569 9.8c1.469 0 3.218.002 4.56.141.67.07 1.348.183 1.863.393.422.173 1.395.73 1.074 1.841-.391 1.365-1.891 3.216-3.33 4.486-.881.78-3.046 1.633-5.003 2.321-2.047.72-4.181 1.362-5.236 1.674-.562.167-1.364.301-2.261.417-.838.108-1.765.205-2.64.312-.833.098-1.619.208-2.23.349a3.64 3.64 0 0 0-.625.187c-.257.412-.686 1.104-1.062 1.533-.453.522-2.528 1.402-2.255-1.025l.036-.322z" fill="#f9e5b5"/><path d="M76.668 21.774c-.462.313-.981.612-1.429.817-.317.143-.736.31-1.109.315-.835.012-1.245-.725-.984-1.429.338-.92.873-1.807.873-1.807s1.146-1.449 2.727-3.022c1.547-1.54 3.658-3.359 5.675-4.084 3.646-1.308 8.113-2.596 11.147-2.596 1.463 0 3.205.003 4.541.141.668.07 1.326.179 1.816.38.414.168 1.256.669.979 1.639-.381 1.319-1.848 3.142-3.279 4.408-.851.751-2.979 1.594-4.948 2.286-2.044.72-4.174 1.362-5.227 1.674-.559.164-1.351.297-2.237.411-.838.108-1.761.204-2.637.311-.842.102-1.634.211-2.249.352-.298.07-.515.136-.655.196l-.078.037c-.27.46-.683 1.131-1.043 1.543-.432.494-2.199 1.243-1.959-.897l.076-.675z" fill="#f9e6b8"/><path d="M76.874 21.425a10.62 10.62 0 0 1-1.706 1.014c-.316.142-.705.293-1.041.299-.702.009-1.047-.596-.823-1.202.332-.905.854-1.77.854-1.77s1.134-1.433 2.709-3c1.544-1.538 3.634-3.333 5.612-4.043 3.647-1.31 8.088-2.585 11.089-2.585 1.459 0 3.193 0 4.523.139.668.068 1.305.176 1.77.368.406.167 1.119.605.879 1.436-.365 1.271-1.801 3.067-3.227 4.328-.823.726-2.914 1.557-4.893 2.255a115.432 115.432 0 0 1-5.221 1.669c-.549.162-1.332.292-2.208.406-.838.108-1.761.204-2.637.309-.845.103-1.646.213-2.267.355a4.447 4.447 0 0 0-.684.207.736.736 0 0 0-.14.076c-.268.46-.674 1.126-1.041 1.547-.41.47-1.87 1.083-1.665-.767.04-.343.083-.684.108-.992l.009-.049z" fill="#fae8bd"/><path d="M77.063 21.065c-.54.437-1.326.927-1.966 1.219-.317.145-.678.281-.972.284-.572.009-.848-.466-.662-.974.33-.89.836-1.731.836-1.731s1.121-1.418 2.687-2.975c1.543-1.538 3.612-3.31 5.55-4.006 3.647-1.306 8.063-2.574 11.033-2.574 1.454 0 3.18.001 4.507.137.66.068 1.279.176 1.721.357.396.162.979.542.779 1.234-.352 1.223-1.758 2.994-3.174 4.248-1.51 1.334-8.039 3.295-10.052 3.889-.54.161-1.317.287-2.183.4-.836.109-1.758.205-2.631.31-.854.104-1.661.216-2.286.358a4.494 4.494 0 0 0-.714.216.874.874 0 0 0-.171.093c-.271.463-.714 1.166-1.071 1.575-.385.443-1.541.923-1.364-.64.037-.343.081-.686.109-.994.011-.164.021-.306.024-.426z" fill="#f9e8c0"/><path d="M77.215 20.74a1.444 1.444 0 0 0-.184.133 9.968 9.968 0 0 1-2.006 1.259c-.314.144-.646.266-.901.27-.441.006-.653-.339-.5-.75.32-.874.813-1.692.813-1.692s1.112-1.403 2.668-2.952c1.543-1.537 3.587-3.284 5.488-3.964 3.646-1.31 8.038-2.567 10.974-2.567 1.447 0 3.168 0 4.488.137.662.068 1.256.173 1.678.345.389.159.838.48.68 1.031-.338 1.177-1.715 2.919-3.127 4.167-1.473 1.302-7.946 3.253-9.983 3.855-.538.157-1.302.282-2.159.392-.835.11-1.758.206-2.631.312-.86.103-1.671.216-2.302.361a4.364 4.364 0 0 0-.745.226c-.195.086-.258.152-.267.171-.267.462-.69 1.145-1.034 1.54-.363.419-1.211.763-1.069-.51.038-.346.081-.688.108-.997.028-.312.038-.558.016-.728l-.005-.039z" fill="#faeac5"/><path d="M77.228 17.126c1.541-1.535 3.562-3.259 5.423-3.926 3.65-1.31 8.017-2.554 10.918-2.554 1.441 0 3.156 0 4.47.136.658.068 1.232.169 1.629.333.381.154.699.417.582.828-.324 1.129-1.672 2.845-3.074 4.086-1.436 1.27-7.856 3.209-9.921 3.818-.528.157-1.286.281-2.131.389-.833.108-1.754.204-2.631.311-1.811.219-3.224.472-3.438.841-.271.464-.683 1.134-1.016 1.514-.342.394-.883.605-.773-.38.04-.346.083-.692.112-1.002.025-.31.038-.573.012-.761-.024-.213-.078-.231-.078-.231-.024-.006-.133 0-.388.216a9.672 9.672 0 0 1-1.969 1.235c-.313.144-.618.25-.833.254-.308.005-.453-.212-.338-.522.316-.858.795-1.655.795-1.655s1.099-1.389 2.649-2.93z" fill="#faebc8"/><path d="M74.718 20.15s4.342-5.482 7.992-6.791c3.646-1.308 7.989-2.547 10.859-2.547s6.83 0 6.519 1.084c-.311 1.082-1.627 2.771-3.025 4.008-1.4 1.237-7.762 3.165-9.855 3.782-2.094.618-7.762.69-8.302 1.619-.538.927-1.625 2.627-1.469 1.235.155-1.39.382-2.771-.625-1.927-1.003.846-3.18 2-2.87 1.155.31-.846.776-1.618.776-1.618z" fill="#fbedcd"/><path d="M63.828 38.253c.209.578.467 1.229.69 1.598.466.772-1.171-.772-1.557.463-.382 1.237-1.313.856-.848 1.702.466.843.466 1.308.466 1.308s-.979-1.218-1.527-.735c.112-.613.327-1.188.543-1.761.313-.827-.009-1.149.624-1.874.637-.723.221-1.447 1.053-1.033.212.106.398.225.556.332zm-2.871 5.787c.04.154.067.366.067.676 0 1.464.625 1.154-.155 2.236a.74.74 0 0 1-.125.135c-.053-.213-.083-.342-.083-.342l-.208-.826s-.311-.839.105-1.356c.271-.337.366-.317.399-.523z" fill="#f7dea4"/><path d="M76.184 93.508l1.771 6.179 1.105 6.84s.021 1.881-.463 3.641c-.481 1.762-.621.502 0 2.08.625 1.582-.161.801-.804 2.061-.644 1.26-.162.801-.805 3.021-.615 2.125-2.665 9.061-3.688 11.041.147.77.294 1.459.417 1.877.426 1.457 1.351 3.629 1.976 4.984.624 1.357 1.987 4.562 2.192 5.506.208.941.624 1.033.938 1.654.311.619.947 2.598.947 2.598l-.029.057c.938.174 1.013.02 1.57 1.025.624 1.121.323 2.539-.482 3.18-.804.641-3.016 2.861-2.233 2.701.786-.16 5.734-1.9 6.377-2.701.643-.801 2.072-2.219 3.196-2.699 1.128-.48.625-.141 1.913-1.74 1.286-1.602 1.749-2.221 2.392-3.021.643-.801 2.714-3.521 3.199-4.461.481-.939 1.63-3.16 1.931-4.279.299-1.119.623-1.281 1.266-2.701.646-1.418 1.127-2.539 1.127-2.539s-1.428 2.4-.16 3.5c1.266 1.1 1.104 2.061 1.104 2.061s-1.424-1.74-1.424-.32-1.613-.459-1.129.48c.482.939 0 1.738 0 1.738l-1.105 1.602s2.535 1.42 1.268 1.42-2.556.48-2.556.48-.622.459-1.426 1.902c-.804 1.438-.345 1.758-1.932 3.338-1.59 1.58-2.211 2.699-3.016 3.182-.804.479-2.093 1.418-2.093 1.418s2.071-.801 3.038-.479c.966.318 1.91.479 1.91.479s-.966.641-2.392.961c-1.429.32-2.071.799-2.071.799l-.966.941s1.609-.48 3.52-.32c1.91.162 2.413.34 4.323-.621 1.911-.959 2.717-2.699 2.717-2.699l1.428-1.6 1.748-.801.646-.938.805-.961s.643.5.16 1.277c-.484.783-3.037 3.801-3.037 3.801l-1.59 2.381-1.125 1.441.32.959s1.77-1.578 2.877-3.02c1.104-1.441 3.176-4.279 3.98-5.4s2.715-3.021 2.715-3.021-1.105 3-2.068 4.441c-.967 1.439-1.914 3.201-2.557 4.139-.643.941-1.426 2.082.162 2.701s1.428 1.58 1.428 1.58.967-.459 1.609-2.059c.643-1.602 3.357-4.922 3.357-4.922s-.783-5.582-.16-7.16c.623-1.582.947-3.801.947-3.801l-3.199 3.16-1.912 1.281h-1.266l1.59-2.061.48-2.061-3.359 3.16.646-2.061v-1.1l-.646-.32-.805-.959 1.127-.32.484-.961-.484-2.221 1.43.643.48-.803-.943-1.098-.482-.961 1.748.318h2.717l1.127.32-.967 1.262-.643 2.08.967-.803 1.123-1.439 2.072-2.059 1.268-2.701v-3.02l1.285-.939-.48-3.342-2.393-2.701-1.127-2.219-1.105-1.762-1.771-3.639-1.91-4.461-1.91-4.121-1.451-2.219-1.104-2.22.484-2.541-.646-2.701s-1.125-1.739-1.287-3.18c-.16-1.441-.783-5.879-1.105-8.261-.323-2.378-1.448-5.699-1.609-7.62-.161-1.921-.322-3.661-.322-3.661l-.464-4.14.947-3.96v-1.741h-1.428s-8.628 23.022-11.505 25.243c-2.875 2.221-3.659-2.839-4.948-1.739-1.286 1.1-1.91 1.76-2.233 2.86-.32 1.1-.823 1.739-1.609 1.578-.783-.159-2.072-1.258-2.072-1.258s-1.888-2.721-1.587-1.602c.301 1.122.761 1.582.301 3.182-.462 1.6-.624 2.539-.624 2.539s-.481.78-1.286-.479c-.804-1.261-1.267-1.9-1.267-1.9l.622 3.339s1.289-.619 1.612.8c.32 1.421.783.321 1.106 2.061.32 1.739.643 2.86.643 2.86l.32 2.861 1.914.16s-1.105-.182-1.105-1.6v-1.9s0-.3-.646-1.741c-.643-1.441-1.124-3.18-.966-4.141.162-.96.646-1.899.646-1.899s-.143.159.966.318c1.105.161 1.586-.5 2.068.941.484 1.441-.482 1.58.162 2.54.642.965 1.263 1.926 1.263 1.926z" fill="#daaf53"/><path d="M73.792 129.711s.805-.779 1.447-3.801c.643-3.02 1.106-4.76 1.749-6.041.643-1.279.966-3.201 1.127-3.98.161-.779.804-1.119.643-.158-.162.959-1.106 3.799-.482 3.02.622-.781.622.158.945 1.119.322.961 1.127 2.561.966.482-.161-2.082-.644-2.723-.485-4.463.162-1.74.324-1.281.324-3.02v-2.84s1.127 3.98 1.127 5.08-.786 2.359-.161 3.799c.621 1.443.481 1.281.481 3.182s-.342 2.381.463 2.699c.805.322 1.771.641 1.771.641s.463-1.92.944-3.66c.485-1.74.323-3.34.323-3.34s-.643 6.98-.643 8.26c0 1.281-.804 1.898 0 2.541.805.641 1.125.16 1.771 1.119.643.961 1.587.801 1.587.801s-.805-.82.161-1.92c.966-1.1 1.426-2.059 2.392-2.381.966-.32 1.771 0 1.771 0s-1.469-.619-2.252 1.121-1.749 1.1-1.106 2.379c.644 1.281-.022 1.121 1.429 0 1.448-1.119 2.09-2.219 2.09-2.219s-.18 1.58.463 2.059c.643.48.342.342-.463 1.121-.804.779-.643 1.582-1.286 1.74-.646.158-1.771-.158-1.127.32.643.48 1.771-.162 1.771-.162l.643-1.119 1.106.641.323-.799 1.587-.301s-1.407 1.262-.14 1.74c.842.318 1.762.426 2.286.463l-.037.094c-.743.146-2.109.527-2.109 1.342 0 1.121-1.587-.777-.944.801.43 1.057.931 1.549.977 2-.203.305-.445.652-.704 1.012-.389.236-.446-.168-1.72.33-1.59.617-3.339 3.02-3.339 3.02s.481-4.441-.161-2.699c-.644 1.74-1.609 2.84-1.609 2.84s.481-.961 0-2.701-.301-3.66-.944-2.701c-.643.961-2.233 1.9-2.556 2.859-.32.961.625 1.463.462 2.402-.15.879-3.357 2.736-3.775 2.975a.117.117 0 0 1-.015-.016c.237-.326 1.788-2.512.915-2.66-.675-.113-1.608 1.234-2.084 2.012-.181-.551-.624-1.865-.867-2.35-.314-.621-.73-.713-.938-1.654-.205-.943-1.568-4.148-2.192-5.506-.625-1.355-1.55-3.527-1.976-4.984l-.037-.133.108-.406z" fill="#ce9b50"/><path d="M113.736 91.126s1.268 3.94 1.268 5.86c0 1.922.621 4.121-.484 2.543-1.107-1.582-2.553-3.002-2.553-4.282 0-1.281.18-1.601-1.107-3.021-1.289-1.419-2.232-2.378-2.232-2.378s-1.75-2.06-.805-.161 2.072 1.279 2.234 3.021c.16 1.739 0 2.54 0 2.54s-1.107-.322-2.234-2.7c-1.127-2.381-1.77-2.86-1.77-2.86s1.105 4.141 2.715 5.881c1.607 1.738.664 2.039 2.574 3.961 1.91 1.92 3.5 2.859 3.5 2.859s2.211.5 2.072 1.92c-.141 1.42 0 1.559.162 3.641.158 2.08.459 1.76 0 3.82-.463 2.061-1.914 4.92-1.914 4.92s-.301.619-1.75-3.18c-1.445-3.801-1.607-3.822-3.195-5.561-1.59-1.74-2.736-2.541-4.004-4.76-1.268-2.221-3.178-6.203-3.178-6.203l-.643-3.799s-.965 2.541 1.426 7.942c2.395 5.398 4.646 7.781 4.646 7.781l2.234 3.959 2.07 2.861 2.072 2.078-.322 2.221-.32 2.221s2.553-6.041 3.195-8.102 1.447-6.039 1.447-8.1.023-4.281.484-5.242c.463-.961.945-2.539.945-2.539v-4.301l1.127-7.781 1.426-6.66.484-2.861v-1.741s-1.105.8-1.428 1.9c-.32 1.1-2.23 8.581-2.393 10.642s-1.607 3.181-1.607 3.181l-.162 4.278-.162 3.342s-2.232-.641-1.91-5.241c.32-4.6-1.447-5.9-1.289-7 .162-1.1-.48-1.74-.158-3.801.32-2.059-.143-3.819-.143-3.819l-3.357-3.482s-3.357 8.401-3.039 9.52c.324 1.122 1.107.961 1.268 2.702.162 1.741.162 1.9.162 1.9s.342-2.519 1.609-.941c1.268 1.582 1.748 3.021 1.748 3.021l.322 2.221.32-3.181.649.961z" fill="#daaf53"/><path d="M65.284 72.574l.038-.049.162-.939.161-.801-.323-1.58.804.621.485-.781-1.127-1.119-.162-1.101.804-.641.162-.8-.966-.479.646-1.1-.484-.8-.942.412c.024.891.05 2.417-.021 3.057-.105.931 0 2.805-.105 3.645-.089.728.616 1.832.868 2.455zM79.725 145.082c.473.141.881.354.944.668.161.803.966 1.461.484 2.082-.484.619-1.63 1.922-2.094 2.539-.463.621-1.267 1.742-1.267 1.742s-.181 1.6 1.105.959c1.289-.641.664-.799 1.932-1.279s2.072-1.26 2.072-1.26l1.127-.48s-1.45.619-1.127 1.418c.323.803-.804.961-.804.961l-1.91 1.26-1.128.641-3.82-.641-.106-.219c.375-.018.455-.098.455-.098s1.364-3.387 2.093-4.535c.648-1.024 1.799-3.276 2.044-3.758z" fill="#f7dea4"/><path d="M79.431 143.971c.674-.705 1.415-1.398 1.723-1.398.622 0 .783-1.1.783-1.1l.643-1.121-1.106-.939-1.125-1.121-1.289-1.26-1.587-2.08s-1.429-1.92-1.429-2.701c0-.779.643-.939-.643-1.258a5.59 5.59 0 0 0-1.492-.141c.472 1.408 1.241 3.203 1.785 4.381.624 1.357 1.987 4.562 2.192 5.506.208.941.624 1.033.938 1.654.16.318.406.996.607 1.578z" fill="#daaf53"/><path d="M75.055 153.477c3.02.455 9.447 1.176 19.833 1.176 10.092 0 16.084-.07 18.965-.119.225.123.566.412.877 1.098.52 1.148 2.105 6.605 2.105 6.605l-.311.414.135.238c-1.986.373-7.555.918-22.738.506-14.721-.4-20.206-1.346-22.157-1.865l.067-.133s0-.102.208-1.137c.208-1.033 2.112-6.018 2.112-6.018s.292-.764.811-.764c.034.001.064-.001.093-.001z" fill="#3d5965"/><path d="M73.812 155.143l21.604 3.75 19.775-2.006a16.684 16.684 0 0 0-.461-1.256c-.311-.686-.652-.975-.877-1.098-2.881.049-8.873.119-18.965.119-10.386 0-16.813-.721-19.833-1.176l-.092.002c-.519 0-.811.764-.811.764l-.34.901z" fill="#517b8a"/><path d="M74.619 155.283l.245-.631.818-1.086c2.011.283 5.185.633 9.629.857.063.172-.018.334-.542.334-1.124 0-8.464-.527-8.464-.527l-.382.738-.18.51-1.124-.195z" fill="#9cadb8"/><path d="M99.83 154.646v1.969h-.531l-.24-1.967c-.404.002-.818.002-1.24.002l.207 1.648-4.05.42-.212-2.068-.504-.004.079 1.863h-.531l-.083-1.867-.754-.01-.074 1.666-1.699-.107v-1.59h-.029l-.67 1.213-1.91.484-.531-1.646h-.804l-.848 1.539-1.229-.271 1.117 1.215.049.01 16.46.42 6.387-.633-.105-.906-1.018-1.414-1.666.012-1.094.451 1.59.211.488.906-3.414.107-.424-1.662c-.859.004-1.764.008-2.717.009z" fill="#3d5965"/><path d="M111.795 154.564l1.506 1.143.326 1.338 1.564-.158a16.684 16.684 0 0 0-.461-1.256c-.311-.686-.652-.975-.877-1.098-.564.01-1.248.02-2.058.031z" fill="#9cadb8"/><path d="M73.957 154.76c2.79.451 8.862 1.121 20.932 1.312 12.209-.102 17.817-.141 19.961-.152.455 1.182 1.35 4.16 1.766 5.562-2.828.234-9.453.629-21.727.609-13.797-.369-20.218-1.111-22.905-1.543l.057-.289c.167-.827 1.423-4.195 1.916-5.499z" fill="#517b8a"/><path d="M98.035 156.047l.857 6.037.82-.006.162-2.43.826 2.42c.871-.008 1.705-.02 2.502-.033l-.07-1.035.611 1.027c.238-.006.473-.01.705-.014l-1.299-6.008-5.114.042z" fill="#3d5965"/><path d="M72.678 160.266l2.096-5.381c.339.047.714.098 1.127.148l-1.888 5.338-1.335-.105zM113.355 155.928l1.281 5.285.129.404a97.688 97.688 0 0 0 1.85-.135c-.416-1.402-1.311-4.381-1.766-5.562l-1.494.008z" fill="#9cadb8"/><path d="M67.963 171.361c2.501.459 10.364 1.592 27.161 1.592 16.6 0 24.008-.414 26.409-.588l2.41 8.152s-.137.066-.189.471c-1.777.562-8.133 1.307-29.347 1.307-21.427 0-27.696-1.74-29.402-3.029l.357-.518 2.612-7.377-.011-.01z" fill="#517b8a"/><path d="M118.393 172.547l.127.27 1.121.209.531.529 2.818 7.623c.32-.064.57-.127.764-.189.053-.404.189-.471.189-.471l-2.41-8.152c-.65.046-1.672.111-3.14.181z" fill="#9cadb8"/><path d="M65.792 179.723a2.26 2.26 0 0 1 .714.076c1.168.316 1.653-.527 1.653-.527l2.609-6.984.397-.451c.773.096 1.666.193 2.688.291a6.6 6.6 0 0 0-.538.16c-.954.318-2.016.318-2.016.318l-2.184 6.35s-.382 1.645.637 1.645c1.016 0 2.246.424 3.944.738 1.696.318 3.926-.482 4.625-.314.699.166 2.184-6.414 2.184-6.414l-1.167 6.939s.214-.693.745-1.645c.528-.949 1.485-6.455 1.485-6.455h.488l-1.444 7.574s.152.271.745.271c.59 0 1.122-.168 1.122-.168l1.062-5.506-.531 5.928s1.699.107 2.929.107c1.227 0 2.5-.213 2.5-.213l.531-5.928s-.317-.588-.211-1.117c.105-.525 0-.74 0-.74l-.32-.525s-4.792-.316-5.535-.316c-.343 0-.722-.068-1.031-.141 3.616.166 7.997.277 13.253.277 1.94 0 3.754-.006 5.45-.016l.592.617.426.527s-4.051-.105-6.663-.209c-2.609-.107-2.82-.107-2.82-.107l.382 7.678s.212.105.743.105h1.167l-.32-6.834h1.062l.594 6.941s1.863.105 3.351.105c1.484 0 2.184-.213 2.184-.213l-.531-6.455.531-.484 1.062 7.047s.273.209 1.23.209c.953 0 1.168-.104 1.168-.104l-1.762-7.68 1.23-.105-.32.633 1.699 7.361h1.016c.637 0 .426-.314.426-.314l-1.973-7.047.742-.422 2.188 7.891.637-.213-2.02-6.938.637.482 1.973 6.561.742-.209-2.289-7.256 1.123-.213 2.123 6.73s1.229.738 1.018-.213c-.053-.23-2.396-6.518-2.396-6.518s1.439-.211 2.184-.211c.742 0 1.697-.105 1.697-.105l-2.076.422 1.971 6.939s1.236.332 2.828.527c-4.469.25-11.303.43-21.722.43-18.968.003-26.057-1.36-28.618-2.569zm14.238-7.141c-.501.246-1.106.404-1.604.129a6.4 6.4 0 0 1-.412-.25c.64.041 1.312.082 2.016.121zm-3.513-.228c-.419.301-.849.531-1.441.146-.207-.135-.361-.236-.497-.305.604.055 1.25.108 1.938.159zm46.944 8.716c.102-.029.199-.061.295-.09 0 .002 0 .006-.002.008a4.298 4.298 0 0 1-.293.082z" fill="#3d5965"/><path d="M65.178 179.016c3.772.713 12.423 1.863 30.028 2.217 19.972.4 26.558-.195 28.705-.688-.045.047-.119.166-.156.443-1.777.562-8.133 1.307-29.347 1.307-21.427 0-27.696-1.74-29.402-3.029l.172-.25z" fill="#3d5965"/><path d="M117.562 181.549l-1.973-6.348.215 3.859-1.383-4.451-.105-.633h1.379c1.125 0 1.062-.104 1.062-.104l2.504 7.359 1.547-.209-.316-.803h-.637l-2.609-6.348.316-.215-.896-1.037c.023-.002.045-.002.068-.002l.617.092.637.947 3.352 7.68.426-.211-3.141-7.361.426-.107 3.137 7.469-2.438-7.15 2.854 7.275c-.961.168-2.414.34-4.596.496l-.446-.198z" fill="#3d5965"/><path d="M65.468 178.451l.612.291 2.609-6.621.32.166-2.609 6.668h.848l3.14-6.455s-.105.061-.531-.213c-.426-.271-.531-.377-.531-.377H70.6l.141-.127a60.608 60.608 0 0 1-2.044-.295h-.763l-2.466 6.963z" fill="#9cadb8"/><path d="M114.504 163.43l2.115 3.445 1.279-.068s.326-.352.652-.553l-.037-.076-1.811-3.215-2.198.467zm4.609 3.959c-.318.133-.699.135-.459.615.303.602.83 1.797.83 1.797l.828 1.73s.492.037.965.031l-1.607-3.615-.535-.518-.022-.04z" fill="#f7dea4"/><path d="M91.733 184.242c.346-.389.79-.791 1.199-.863.833-.15 1.513-.672 1.513-.672s11.842.227 18.704 0c6.859-.225 8.971-.826 9.498-1.129.26-.146.77-.576 1.225-.98-.061.1-.137.311-.137.746 0 .727-.207 1.449-.207 1.449s1.143 1.459-29.036 1.459c-.951 0-1.868-.004-2.759-.01z" fill="#daaf53"/><path d="M82.741 97.947s-.162-2.4 0-3.661c.161-1.26-1.286-1.1-.481-1.9s1.124-.3 1.286-1.26c.161-.96-.622-.981.323-2.08.944-1.1.944-1.42.944-1.42s-.966-.16-.162-.639c.805-.482.644.458.805-.96.161-1.421 0-.96.646-2.382.643-1.419-.786-1.1.643-1.899 1.426-.8 1.268-1.1 1.587-2.219.323-1.12-.301-.662.646-1.602a7.48 7.48 0 0 1 2.068-1.419s-1.264 3.64-1.748 4.44c-.482.8-1.128.661-.966 1.441.162.78-1.286.14-.482 1.259.805 1.122.665 1.441 1.448 1.122.785-.322 1.91-.322 1.91-.322s0 1.101-.32 2.221c-.323 1.122-.966 2.061-.162 2.061.805 0 1.749 0 1.749 1.121 0 1.118-.622 1.418-.622 2.219 0 .8 1.106 2.402 1.106 3.501 0 1.1-.646 2.078 0 3.34.643 1.26-.463 3.639 1.447 3.799 1.911.16 2.233-.318 2.233-.318s.18 1.279.965.641c.783-.641.783-.801.783-.801s0 1.439.645.801c.643-.641 1.127-.801 1.127-.801s-.463-.141.322 1.279c.783 1.42.299 1.742 1.104 2.701.807.959 1.268.779 2.555 2.219 1.287 1.441 1.287 2.381 1.287 2.381s-.459-.459-2.393-1.898c-1.932-1.441-3.197-3.961-3.68-2.701-.484 1.26-1.451 1.74-1.451 1.74s-1.105-.801-1.105.16c0 .959-.14 1.26.484 2.539.621 1.281.945 2.379.945 2.379s-.482-3.617.16-3.158c.645.459 1.609-.5 1.609.299 0 .803-1.588 2.701-.48 2.859 1.105.162 1.105.32 1.105.32s-2.877.162-1.59.641c1.289.48 1.59.32 1.59.32s-2.557.662-1.59.961c.965.299 1.59.461 1.59.461s-2.557.158-1.43.479c1.129.32 1.588-.16 2.715.641 1.127.799 1.127.139 3.037 1.58 1.912 1.439 3.982 3.682 4.787 4.461s.967.938.967.938-1.309.482-1.771 1.441c-.463.961-1.268.48-1.268.48s-.48-.34.162 1.1c.643 1.441 1.105 3.182 1.105 3.182s-3.982-.941-4.787-1.26c-.803-.322-.781-.16-1.266-1.121-.482-.961-.805-1.42-.805-1.42l.965-.961s-4.807-5.379-4.807-4.439 3.199 4.121 3.199 4.121-2.557-2.242-2.072-.961c.482 1.279.643 2.082.643 2.082s-1.285-2.244-1.127-1.283c.162.961.805 3.822.805 3.822s-3.035-4.6-2.715-3.182c.323 1.42.805 3.502.805 3.502s-1.47-2.561-2.414-4.143c-.945-1.578-3.659-5.221-4.464-6.98s-1.91-5.262-2.072-6.68c-.162-1.42.482-2.219-.484-2.541-.966-.318-1.609-.961-1.286 0 .32.961.966 1.58.966 1.58s-1.106-.959-1.268.16c-.162 1.121-.162 1.76-.162 1.76s.463-2.059 1.267-.639c.805 1.42.805 1.898.805 1.898s-2.233-.639-2.233.641c0 1.281.786 1.26 1.268 2.061s1.447-.318 1.447.801-.665 1.441-1.771.641c-1.105-.801-1.749-1.76-1.749-1.76s0-10.164-.161-12.062c-.161-1.9-.019-3.02-.643-3.34-.621-.323-2.068-2.384-2.068-2.384z" fill="#ce9b50"/><path d="M104.465 63.805s1.588.3 2.715 1.419c1.125 1.12 1.447 1.281 3.195 1.281 1.752 0 3.662-.181 4.787.619 1.127.802 2.232 1.761 2.232 1.761s.666 2.402 1.609 3.019c.945.622 1.91 1.1 2.072 2.061s.322 1.582.322 1.582-.184.5-1.449-.941-2.555-2.72-2.393-1.76c.162.96.48 2.219.48 2.219l-2.553-2.061-1.91-.778s-2.414-.34-1.932 1.1c.484 1.439.826 2.241 1.77 3.499.945 1.261 2.535-.319 1.107 1.741-1.43 2.06-1.75 2.401-1.107 3.501.645 1.1.645 2.378.645 2.378v2.221l.463 3.5s-1.43-3.5-1.588-5.721c-.162-2.219-.322-5.238-.322-5.238s-1.588-2.722-1.588-1.121c0 1.6.783 5.699.945 7.78.16 2.081.16 2.24.16 2.24s-1.91-7.62-2.07-5.719c-.162 1.9-.324 5.08-.324 5.08s-1.428-5.582-1.748-3.98c-.324 1.6-.643 3.501-.643 3.501s-.947-6.981-1.43-5.081c-.484 1.9-.643 3.341-.643 3.341s-.484-3.021-.967-6.201c-.484-3.182-.785-3.321-1.268-4.441-.484-1.12-1.289-.981-1.289-1.76 0-.78.646-3.02.646-3.02s-.807.82-1.289 1.76c-.48.939-.781.939-.781.939s-.805-.48-.967-2.381c-.162-1.9-.805-8.421-.805-8.421s3.195.5 3.842 1.761c.643 1.261.945.46 1.426 1.9.484 1.441.646 1.74.646 1.74v-3.319h.004z" fill="#daaf53"/><path d="M109.871 85.017c-.17-.421-.328-.833-.461-1.21-.783-2.221-1.75-4.441-1.75-4.441s2.557 3.319 1.91 1.1c-.643-2.219-.803-4.76-.803-4.76s2.412 4.92 2.092 3.179c-.322-1.739-.484-3.5-.484-3.5s1.592 3.321 1.592 2.539c0-.778.16-2.219.16-2.219l.242-.534c.262.527.58 1.035 1.043 1.653.945 1.261 2.535-.319 1.107 1.741-1.43 2.06-1.75 2.401-1.107 3.501.645 1.1.645 2.378.645 2.378v2.221l.463 3.5s-1.43-3.5-1.588-5.721c-.162-2.219-.322-5.238-.322-5.238s-1.588-2.722-1.588-1.121c0 1.6.783 5.699.945 7.78.16 2.081.16 2.24.16 2.24s-1.91-7.62-2.07-5.719c-.067.766-.131 1.74-.186 2.631z" fill="#ce9b50"/><path d="M82.437 49.034l1.938-.618 1.242-.692-.931-.772 1.242-.463-1.397-.463-2.25.154 1.554-1.155v-1.237l1.782-.155-1.472-.309 1.007-1.927.465-1.392-1.086-.999 1.864-.774 2.093-.926-.776-1.619 2.093-1.236 1.397-.228 1.627.537h2.56l.935.618s-1.783 1.31-1.938 2.236c-.155.927 1.004.38 1.628-.309.621-.692.466-.774 1.086 0 .621.772.537.772.852 1.39.311.62.537.538 0 1.619-.541 1.083.383.547.156 1.548-.23.998-.852 1.771-.852 1.771l-1.867.773s-1.625-2.937-2.094-1.236c-.466 1.7-1.78 9.646-2.094 11.572-.311 1.928-.537 4.392-1.624 6.865-1.091 2.473-4.032 11.729-5.433 14.584-1.398 2.855-4.507 1.308-5.358 2.237-.848.927-3.408 1.698-3.408 1.698s-3.423.229-2.022-1.698c1.398-1.928-1.006-.465-1.006-.465l-1.242-1.309-1.783-6.175s3.73-.617 3.961-2.391c.227-1.772 1.003-1.927 1.158-2.7.155-.772-.848-2.474.779-3.317 1.625-.846 4.964-3.166 4.964-3.166l1.938-6.09 1.864-3.473-1.552-.308z" fill="#daaf53"/><path d="M65.232 37.398s-.115 2.745.459 2.288c.575-.458.805-1.145.805-1.145s-.301 2.701.689 2.93c.991.229 1.221-.114 1.221-.114S67 39.5 67.646 39.8c.646.298.646.413 1.335.298.69-.115 1.609-.298 1.035-.757-.575-.458-.575-.114-1.15-.915s-1.106-1.328-1.106-1.328 2.37 1.514 1.795.642c-.574-.871-1.795-1.785-1.795-1.785s-.76-1.256-.114-.685c.646.572.646.458 1.45 1.029.805.572 1.724 2.085 1.379 1.1-.345-.985-.345-.985-1.034-1.557-.689-.572-1.264-1.028-1.264-1.028s1.609 1.1 1.264.114-.575-.643-.92-1.328c-.344-.686.116-1.143.116-1.143l.574-.114s.596 3.444.69 2.471c.115-1.214-.229-1.829.115-2.585.344-.757.689-1.671.574-2.357s-.23-.686-.689-.114c-.46.571-1.68 1.529-2.141 2.058-.459.528-1.149 2.356-1.149 2.356s-.459-.343 0-1.143 1.565-1.786 2.14-2.471c.574-.686.92-1.214 1.265-2.014l.689-1.602s-.733 1.602.3.914c1.035-.686 3.104-2.516 2.184-1.257-.919 1.257-2.112 3.044-2.299 3.73-.186.686-.301.914-.301.914s1.565-.457 2.025-.799c.459-.343 1.106-.343 1.106-.343S71.049 31.658 70.589 32c-.46.343-.574.114-.345.915.23.8.115.843 0 1.486-.115.642-.503 2.128.876 2.014 1.379-.114 1.565-.571 2.254-1.143.69-.571.805-.299.46-1.099s-.689-1.301-.46-1.829c.23-.528.69-.8.805 0 .115.8-.23.729.805 1.486 1.038.757 2.028.985 2.028.985s-2.603-.457-1.913 0c.692.457 1.336.571 1.336.571s-.873.8-1.221.343c-.345-.458-.345-.8-.805-.343s-.618.114-.919.686c-.301.572-.459 1.143.23.686.689-.458 1.264-1.029 1.724-.458.463.572.071 1.1 1.339 1.1 1.264 0 1.078.043 1.839-.299.761-.343.761-.457.646-1.143-.114-.686-.344-1.899-.344-1.899s.23 1.514.804.757c.575-.757 1.149-1.1 1.149-1.1s1.494-.299.574.343c-.919.643 1.522.985.417.985s-1.68 0-1.91.686c-.23.686.043.229 1.035.8.99.571 1.451.157 1.795.571.345.414 2.025.185 2.025.185s-1.681 1.486-2.14.915c-.46-.572.158-.458-1.221-.572-1.378-.114-3.935-.229-2.944.458.991.685 3.476 0 3.821.571.345.572.919 1.443.919 1.443s-.503.229-1.264.114c-.761-.114-.875-.915-1.68-.229-.804.688-.388 1.03-1.379.688-.991-.344-.876-.388-1.335-.802-.46-.413-.46-.572-.805 0-.348.572-.761 1.144-1.339 1.144-.574 0-1.264-.342-1.264-.342s1.494-.344.69-.573c-.805-.229-1.035-.229-1.035-.229s1.839-.755.919-.755-1.522-.529-1.45.457c.071.986.99.184.531 1.1-.46.914-.804 1.143 0 1.257.805.114.459.414.575 1.214.114.801-.46 1.673.23 2.358.689.686 1.451.229 1.795.686.348.457.232.8.807.114s1.15-.914 1.15-.914-.46 1.714-1.15 1.714c-.693 0-.991.114-1.913-.114-.919-.229-.876.342 0 .571.876.229 2.072.458 2.833-.114.761-.572 1.565-.915 1.565-.915s-1.149.229-.345.571c.805.343.919.343.919.343s-3.29.299-3.634 1.1c-.348.8 2.255-.457 3.175-.115.919.343 1.264.457 1.264.457s1.034.8-.575.8-2.37-.687-3.06-.572c-.689.115-1.727.115-.923.572.809.457 1.684.343 2.718.571 1.035.229 1.91 0 2.6 0s-.23 1.399.805.757c1.034-.643 1.221-.757 2.14-1.442.919-.686 2.485-2.243 2.485-2.243s.875-.8.23-1.028c-.646-.229-1.681-.5-2.37-.914-.689-.414-2.441-.871-.991-.985s3.547-.229 2.786-.686c-.761-.458-1.565-1.214-1.565-1.214l.69-1.602s.186 2.745 1.451 1.602c1.264-1.145 1.724-2.701 1.724-2.701s.301 2.771.991 3.801c.69 1.028-1.522 1.1-.991 2.013.531.915 1.034.844.345 2.058-.689 1.213-3.864 7.942-4.209 8.971-.344 1.029-1.45 4.258-2.14 5.058-.689.8-2.298 1.187-1.494 2.058s1.034 1.099 1.034 1.099l.345.686s.345.686-.23.571c-.574-.114-1.451 1.442-1.451 1.442l-.804 1.258-.574 1.213-1.035 2.473-.991 1.944-.575.528-.805-.414.345-1.487s1.149-1.971.346-1.214c-.809.757-1.336 2.313-2.029 3.23-.689.914-1.954 2.171-1.954 2.171s-.99-.3-1.22-2.357c-.23-2.058-.044-3.158-.805-3.272s-.876-.872-.991.114c-.115.985.646 2.542.761 3.572.115 1.029.345 2.172.345 2.172s-.761.185-.876-1.258c-.115-1.443-.689-1.486-1.035-3.387-.344-1.9-.229-2.173-.804-2.816l-.575-.641s1.538.227 2.184-.344c.646-.572.187-1.029.761-1.257.574-.229.919-.043.689-.686-.23-.643-.345-.985-.345-.985s.804.414.919 1.328c.115.914.301.458-.69.8-.99.343-.99.687-.99.687s.875-.687 1.335-.114 1.106.343 1.451-.458c.345-.8.804-2.128 1.264-2.813.46-.686.345-2.471.808-2.585.46-.114.643-.343.758-.8.115-.457.229-.871.229-.871l-2.14-1.371s-1.451 1.028-2.025 1.028c-.575 0-1.264-.757-1.264.114s.503 1.786-.416 2.357c-.92.571-1.38.642-1.38 1.214 0 .57.346 1.143.805.686.46-.458.761-.458.761-.458s-.646 1.486-1.105 1.143c-.46-.343-.46-.571-.804.114-.345.686-.46.757.115.985s.689.457.689.457-1.265.3-1.379-.229c-.115-.528.23-.985.459-1.442.23-.457.459-.687 0-1.143-.459-.457-1.335-.687-1.565-.114-.23.57-.46.914-.46.914s-.805-1.072.115-1.257c.919-.186 1.451.271 1.335-.643-.115-.915-.99-2.057-.99-2.057l-.115 2.057s-.46-2.014-.115-2.7c.345-.686-1.149-2.243-.804-2.813.345-.574.689-1.417.345-1.831-.345-.413-.919-1.215-.919-1.215l-.229-1.899s-.603-1.144-.417-1.715-.344-1.829-.805-2.928c-.459-1.1-.919-.643-.919-.643s-.646-.572-.875-1.258-.345-1.213-.575-1.785c-.23-.571 0-1.716 0-1.716s.187 1.487.761.687c.574-.801-.575-1.444.115-2.015.689-.572 0-2.173.919-1.831.919.344 1.335 1.716 1.795 1.259.459-.457-.646-.985-.531-1.901.114-.914.3-1.943.3-1.943z" fill="#ce9b50"/><path fill="#daaf53" d="M71.575 48.879l2.249 3.627 2.022 1.619 1.627.773 1.469-.31 2.022-.309.156-.617 1.317-.226-.776-.93-2.095-.772 1.554-.618-2.022-.536-2.871-.62h-2.403l-2.249-1.081zM83.524 56.98s-.848-3.093.311-3.473c1.162-.382 2.249.238 1.317-.845-.932-1.083-.777-1.619.155-2.083.932-.465 2.093-2.318 2.093-2.318s.466-1 1.242-1.31c.537-.212.959.088 1.17.295a4.293 4.293 0 0 1-.216.425c-.689 1.213-3.864 7.942-4.209 8.971-.108.324-.292.866-.515 1.482a6.526 6.526 0 0 0-.187-.217c-.695-.773-1.161-.927-1.161-.927z"/><path d="M64.527 42.186s.211 1.784.317 3.015c.105 1.232.211 2.988.211 2.988s.683 3.461.289 1.889c-.395-1.576-1.236-3.75-1.236-3.75s.711 4.561 1.447 4.876c.739.314.739.971.739-.603 0-1.573-1.134-5.716-1.134-5.716s.5.287.817 1.547c.316 1.259 1.767 4.561 2.084 5.295.313.734.102.812.525 2.072.422 1.257 1.19 3.88 1.795 5.007.605 1.128.605 1.128 1.13 1.548.528.418 1.162.732 1.162.732s.183-.523 1.134-.628c.947-.104 1.581.315 1.581.315l1.028.21.633.314-.527 1.337 2.397.945-1.028-1.365-.631-1.022h.841l1.029 1.022 1.162.525-1.056-1.259 3.137-.078.845-.629-.528-1.154-1.24-.63-1.475-.105-1.162-.287-.817-.21 3.138-.105h1.345l-.739-.418-4.268-.21.211.734-1.267.105 1.161.498 1.765.525-1.028.104-.947-.314 1.37.944-1.792-.314-1.027-.63h-2.109l.739-.315-1.451-.708-.845-.838-1.053-1.441-.922-2.204.105-1.128-1.373-1.573-1.053-1.651.208-.419-.5-1.231.817.392-1.659-2.491-.317-1.755-.316-1.26-.105-.602.528-.629-.212-1.049-.634.315s.817.104 0 .628c-.816.524-1.133-.315-1.133-.315l-.106 1.154zM68.798 69.896l1.267-.392 1.342.918.739.731-2.081.106.817-.524-.5-.524-1.584-.315zM74.231 71.574s.524-1.39 1.053-1.782c.527-.392-1.159-.182-1.159-.182l-1.345.077.923-1.127.422-.525 1.264.21-1.264.105s-.845.63 0 .63c.841 0 .87-.21 1.686.21.817.42.817-.105 1.768 0 .948.105 1.342.105 1.448-.946.105-1.049 0-1.439.633-1.754.634-.315.739-.658.739-1.681 0-1.021.211-1.544.211-1.544s.314 2.518-.422 3.12c-.74.603-.634 1.231-.95 1.965-.317.735-.606.812-1.135 1.652-.524.839-1.264.865-1.58 1.782-.317.918-.289 1.784-1.451 3.015-1.159 1.232-1.581 1.758-1.581 1.758s.845-2.178 1.581-3.225c.739-1.051 1.056-1.758 1.056-1.758s-1.056 1.1-1.581.707c-.527-.392-.316-.707-.316-.707z" fill="#a66d3f"/><path d="M71.006 64.102s.345.599.919.186c.575-.414-.114-.986.575-1.1s1.221-.572 1.565-.114c.345.457.575.914.575.914s-.503-.571-1.149-.571-.991.343-.991.343.416-.3.991.114.804.757.804.757-1.221-.458-1.68 0c-.459.457-1.149 1.257-1.149 1.257s.459-.457 0-.915c-.46-.457-.46-.871-.46-.871z" fill="#ce9b50"/><path d="M69.555 41.585s.532 1.214 1.336 1.442c.805.229.92.343.92.343s-1.494.273-.575 1.145 1.335 1.899 2.255 2.585c.919.687 2.184 1.215 2.184 1.215s-1.795-.3-2.6-1.101c-.804-.8-1.494-1.6-1.494-1.6s.389 1.415 1.494 2.172c1.106.757 2.255 1.442 2.255 1.442s-2.988-.686-3.979-2.357c-.991-1.67-1.796-5.286-1.796-5.286z" fill="#a66d3f"/><path d="M75.33 51.471s.531-.985 1.338-.985c.805 0 1.264.414 1.264.414s-1.841.343-1.034.686c.805.343 1.954.343 1.954.343s-1.078.157.072.914c1.149.756 1.494 1.214 1.494 1.214s-.388.07-1.494-.572c-1.106-.643-2.255-1.329-1.681-.756.575.571 1.034 1.328 1.034 1.328s-2.14-.871-2.603-1.443c-.459-.572-.344-1.143-.344-1.143z" fill="#e4c456"/><path d="M82.098 71.517s.963-3.388 1.609-3.959.875-.299 1.336-1.557c.459-1.257 1.149-2.7 1.149-2.7s-1.609 5.056-.689 4.6c.919-.458 1.308-1.829 1.379-3.043.071-1.214.646-1.671.646-1.671s.618-.414 1.608-2.128c.991-1.714-.876-1.442-.115-2.357.762-.916-.043-.959.876-1.83s1.451-2.313.574-1.442l-1.68 1.67s3.016-5.7 1.91-4.601c-1.105 1.1-1.45 1.786-1.45 1.786s.071-2.7 1.45-5.172c1.382-2.471 1.267-2.127 1.038-2.813-.233-.686-1.268 1.486-1.268 1.486s.46-1.1.46-2.472-.46-1.83-.46-1.83.531 2.129 2.144 2.015c1.608-.114 2.714-.871 2.714-.871s-1.221 1.328-1.565 2.128c-.345.799-1.565 2.171-1.565 3.385s-.575 4.301-.693 5.287c-.115.985-.23.87-.574 1.899-.345 1.031.807.045.459 1.031-.345.985-.804 1.67-.804 1.67s.115-2.427-.23-1.328c-.345 1.1-.459 2.243.345 2.014.805-.229.967-1.328 1.727-2.243.761-.916.646-1.645 1.336-2.173.689-.528.689-2.586.689-2.586s-.574 1.873 0 2.173c.575.299-.646 1.899 0 1.899s.187-1.714.991-.8c.805.914 1.336 1.442 2.485 2.473 1.148 1.028 2.141 1.671 3.52 2.585 1.379.915 1.91 1.6 1.91 1.6s-2.6-1.029-2.025 1.328 1.379 4.072 1.379 4.072l-.689 1.9s-2.6-.756-2.83-2.243c-.229-1.486-1.148-5.101-1.033-3.843.113 1.257 1.148 6.315 1.148 6.315s-1.91-5.329-1.91-6.201c0-.871.115-2.313-.23-1.442-.344.872-.3 4.67.576 6.042.875 1.373 1.838 3.458 2.369 5.745.531 2.286-.416 4.343.115 5.1.531.756 1.564 1.1 1.68 3.571.115 2.473 0 3.844 0 3.844s-1.91-2.515-2.254-4.187c-.346-1.671-.963-3.113-1.609-6.042s-.416-6.589-.992-7.688c-.574-1.099-.229-2.585-.918-1.899s-2.715 4.029-3.174 4.944c-.46.915-2.948 3.844-2.948 3.844s3.867-6.659 3.982-9.131c.114-2.472-.575-4.256.114-5.171.69-.914 1.106-1.943 1.221-2.928.115-.986.504-1.214-.301-1.442-.804-.23.23.042-.229.686-.46.643-1.771 1.971-2.069 3.456-.301 1.486-2.187 9.314-2.947 10.801-.762 1.487-.416 1.328-.646 2.358a7.242 7.242 0 0 1-.689 1.828s-.23-2.744-.689-1.257c-.459 1.486-.618 1.899-.805 2.813-.187.915-1.839 3.343-2.37 4.6s-.99 2.859-1.22 4.188c-.23 1.328-.805 3.158-1.265 3.158s-.071-1.899-1.336-.571c-1.264 1.328-2.83 2.242-3.634 1.899-.808-.343-1.152-.528-.692-1.785.462-1.259.416-.502 0-1.488-.413-.985.046-.871-1.106-.757-1.149.114-1.149-.457-1.149-.457s1.565-.272 2.14-1.602c.578-1.329.578-1.971 1.382-3.113.804-1.143.99-3.228 1.451-2.7.459.528 0-.8 0-.8s1.494 1.029 1.034.114c-.46-.915-.805-1.143-.805-1.143s3.246.071 2.37-.342c-.876-.414-1.68-.643-1.68-.643s2.6-2.356 3.29-2.7c.688-.343.574-1.83-.23-1.373-.804.458-3.289 2.587-3.289 2.587s2.643-2.815 1.608-2.587c-1.034.229-1.034.114-1.034.114s-.689-.985-.115-1.443c.57-.454 1.791-.454 1.791-.454z" fill="#ce9b50"/><path d="M92.616 55.43s.229-2.288.344-4.188.115-2.514.805-3.156c.689-.643 1.795-.414 1.68-1.1-.115-.686-.23-1.257-.23-1.257s.459.843.919-.414.963-.457 1.61-1.372c.645-.916.99-2.129 1.105-3.044.115-.916-.115-1.558-.115-1.558s.574.414.92 1.33c.344.914 1.521.799.875 1.257-.646.457-.301.071-.875.985-.576.916-1.609.916-.461 1.602 1.15.686.531.186 1.68 1.099a14.544 14.544 0 0 0 2.301 1.486c-1.381-.114-2.141-.614-3.061-1.486-.92-.871-.963-1.513-1.725-.756-.76.756 1.451 1.029.115 2.128-1.336 1.1-2.714 1.6-1.91 2.928.804 1.328 1.794 2.585 2.484 2.7.691.115 3.176 0 3.176 0s-2.025.914-2.945.457-3.059-2.629-3.059-1.943 1.911 2.814 2.715 3.5c.805.688-.576 1.672.229 2.359.805.686 3.592 1.785 4.74 2.815 1.148 1.028 3.061 2.128 3.867 1.899.805-.229 1.451-1.214 1.451-1.214s-.418.985 1.033.985 1.221-.229 2.025.114 1.336.871 2.484.229c1.15-.643 2.256-1.486 2.715-2.242.459-.757 1.035-1.559 1.035-1.559s-.115 1.33-.805 2.015c-.689.686-2.326.986-1.336 1.557s1.035.643 2.369 0c1.336-.643 2.299-1.1 3.061-1.442.76-.343 1.496-1.899 2.373-2.93.875-1.029.416-1.945 1.449-3.501 1.035-1.557 2.141-4.213 2.6-5.927.461-1.715.691-2.585.691-3.271s-.072-2.287.805-1.716c.875.571 1.334.802 1.334.802s-1.91 1.829-1.68 3.157c.23 1.329.574 1.099-.115 2.356-.689 1.258-1.564 1.443-1.564 2.815 0 1.371.574 1.899-.115 2.243-.689.342-2.299 1.443-2.068 2.587.229 1.143-.115 1.213 0 2.244.113 1.028.99 1.486-.115 1.486s-1.957.528-2.834 1.214c-.875.686-1.264 1.372-2.254 1.486s-.531.229-1.795.457c-1.264.229-2.484.343-3.176.343-.689 0-2.527.529-1.033.529s3.748-.529 3.748-.529-5.932.643-3.633 1.1c2.299.458 5.43-.229 6.232-.229.805 0-2.441 1.257-4.164 1.143-1.725-.114-1.035-.343-4.324-.686-3.289-.343-7.615-2.357-8.492-2.929-.875-.571-2.785-1.557-3.59-2.128-.805-.571-3.174-1.671-3.519-2.815-.343-1.145-.847-3.115-1.493-4.259-.646-1.144.273-5.215-.416-4.986-.689.229-1.034 4.529-1.034 4.529l-.23 1.328-.804 1.373zM92.199 41.814s-1.728-.615-1.612-1.602c.115-.985.876-2.929-.345-1.671-1.221 1.259.276 1.145-1.451 1.03-1.724-.114-1.609-.23-1.609-.23s2.069-1.072 2.069-1.715c0-.642.115-.871.115-.871s3.177 1.257 2.717.457c-.459-.8-1.841-1.714-1.841-1.714s1.91-.343 2.374.229c.459.571.158 1.029 1.493.571 1.336-.457 1.681-.457 1.681-.457s-1.839 1.1-2.6 2.357c-.761 1.258-1.382 1.099-.574 1.671.804.572 1.379.572 1.379.572s-1.495-.458-1.495.345c0 .799-.301 1.028-.301 1.028z" fill="#ce9b50"/><path d="M95.1 42.914s-.947-.528-.301-1.557 1.407-2.242.761-1.899-1.91.342-1.91.342.388-1.601 1.034-2.059c.646-.457.875-1.143 1.335-.457.46.687.389 1.257 1.264 1.715.877.458.762.757.762 1.214 0 .459-.416.573-.762 1.03-.344.458-.689-.071-.919.8s-.345 1.328-.345 1.328l-.919-.457zM104.934 46.026s1.246 1.771 2.562 2.236c1.314.463 1.469-.155 1.469-.155s-.311-1 .467-1c.779 0-1.553-1.7-.156-1.391 1.402.311.781-.69.781-.69l-.936-.772.625-.464-1.092-.929 1.713.155-.467-.998 2.094.31 1.242-.774 1.473.928-1.006.535.695.619 1.242.928v1.154l-.932-.69s-.697 0-1.473-.309c-.777-.309-2.404-.155-2.404-.155s.693.226 1.473 1.154c.775.928 1.553 1.546 1.553 1.546s-.383.226 0 1.155c.385.927.695 1.853.695 1.853l.467 1.001s-1.316-1.083-1.783.309c-.467 1.391-.549 1.155-1.711 2.082-1.158.926-1.625 1.237-2.25.617-.621-.617-1.314-1.773-1.314-1.773s-.385-1.081.467-.772c.848.309-.154-1.308-.154-1.308s2.094 1.379 1.316.381c-.779-1-.936-1.464-.936-1.464s-2.32-.393-2.941-1.082c-.623-.693-.779-2.237-.779-2.237zM75.379 27.897s-.695 2.854.311 2.545c1.003-.309 2.631-1.31 3.408-1.773.78-.464 1.09-.772 1.09-.772s-1.473 1.771-2.404 2.545c-.936.772-2.25 1.544-2.56.463-.313-1.083-.469-1.31-.469-1.927s.624-1.081.624-1.081z" fill="#ce9b50"/><path d="M83.058 25.969s1.007.309 1.784-.309c.775-.62.848-.465 2.248-.62 1.397-.154 2.559-.081 3.181-.928.621-.845.621-2.854 1.401-2.545.777.309 1.003.772 1.003.772s-.692-.843-1.627.774c-.932 1.617-1.469 2.236-2.714 2.391-1.243.156-.693-.227-2.249.465-1.555.689-3.027 0-3.027 0zM80.654 21.722s.227-.845 1.627-.845h1.554s-.86.845-1.709 1c-.851.154-1.472-.155-1.472-.155zM86.083 20.104s1.006.463 2.094-.309c1.09-.772 1.316-1.464 2.249-1.619.935-.154 1.016-.926 1.711-1.39l1.159-.774s-.537 1.928-1.625 2.393c-1.09.463-1.627.309-2.404 1.235-.78.927-3.184.464-3.184.464zM91.36 19.177s1.159.392 1.78-1.001c.625-1.39.313-1.236 1.09-1.699.776-.465 1.004-1.155 1.004-1.155s.705.463-.538 1.773c-1.242 1.31-1.171 2.545-2.177 2.545-1.004 0-1.159-.463-1.159-.463z" fill="#e4c456"/><path d="M113.857 25.815s.23-2.701 1.316-2.701c1.088 0-1.162-1.855.777-1.083 1.938.774 2.404 1.702 4.809 3.165 2.402 1.462 2.332.227 3.338 3.854 1.004 3.629 1.783 4.938 2.25 5.711.465.772 1.086 3.234.93 5.245-.154 2.011.312 2.628-.154 4.865-.465 2.236-2.404 7.255-2.715 8.411-.311 1.152-1.09 3.234-1.4 4.317-.311 1.083-.693 1.773-1.469 2.236-.779.465-.705.547-2.023 1.237-1.316.69-1.781.309-1.781.309s1.316-.701 1.781-2.32c.467-1.617.467-1.771.467-1.771s2.799-.773 1.711-.928c-1.09-.154-1.09-.535-1.09-.535s-.072-1.084 1.246-.773c1.312.309 2.32-.547 1.312-1.083-1.002-.534-1.312-.845-1.312-.845s1.627-.082 1.938-1.545c.311-1.465 1.855-1.535 1.471-3.701-.383-2.164-.85-2.783-.85-4.555 0-1.773.621-4.555.156-6.019-.467-1.464-1.162-6.947-2.404-7.792-1.246-.845-2.094-3.165-3.34-2.237-1.242.928-.621 2.473-2.869 1.237-2.249-1.237-2.095-2.699-2.095-2.699zM105.09 36.305l1.471-1.545-.311-.846-1.316-.463 2.873-.155 1.625.618-1.004.309 1.004.846-1.471.464 2.096.926h-1.629l1.472.62.621.844 1.317.618h-2.092l-1.473.311 1.784.619 1.468.38h-1.779l1.551.772H109.9l-2.25-.154-1.937-.464-1.865-.69h1.865l1.937.156-.623-.93-1.625-.463 1.159-.309.621-.999-2.092-.465z" fill="#d29557"/><path d="M110.678 59.371s.227-.999 1.002-1.154c.779-.154.158-.619 1.09-1.083.934-.464.705-.381 1.088-1.772.385-1.392.695-2.7.695-2.7l1.088-1.392s.775-1.546.621-.309c-.156 1.236-.383 2.938.154 2.164.541-.773.697-2.009.697-2.009l.311 1.7s.311 1.083.621-.31c.311-1.39 0-1.699 0-1.699s1.244-.072.621-.847c-.621-.772-1.709.154-1.709.154s-.777-1.698 0-1.698 2.178-.31 2.178-.31 1.553-.001.154-1.618c-1.4-1.619-3.338-3.319-3.338-3.319s.621-1-.621-1.928-.467-2.701-.467-2.701.383-2.545 2.094-2.545c1.709 0 3.182.464 3.182.464s-1.545 1.238-.85 2.547c.693 1.308 1.781 2.701 1.781 2.701s-2.02-.238-.932 1.307c1.086 1.547.549 2.474 1.555 4.092 1.004 1.619 1.625.537 1.469 1.928-.154 1.392-1.002 1.154-1.312 2.236-.311 1.081.154 2.391-.625 2.545-.775.154-1.016-.772-1.398.463-.381 1.239-1.006 2.546-1.006 2.546s-.775-.154-1.086.93c-.311 1.081-.227 1.152-1.318 1.152-1.086 0 .076 1.239-1.396.62-1.473-.62-3.025-.465-2.25.154.777.619 1.088.928 1.088.928l-3.181-1.237zM102.84 50.27s.852 2.474 1.939 3.167c1.09.688 2.248 1.081 3.027 2.236.777 1.153-.238 1.153.848 1.308 1.092.154 1.246.309 1.246.309s0 1.617-.469 2.545c-.467.928-1.158 1.392-1.158 1.392s-.227-1.474.154-2.166c.383-.688.311-.998-.311-1.617s-.549-1.463-1.711-2.236c-1.158-.774-3.252-2.083-3.408-2.856-.157-.772-.157-2.082-.157-2.082z" fill="#f7dea4"/><path fill="#daaf53" d="M99.35 36.459l1.783.155-.467-.927 1.086-.154-.93-.773 1.553-.154-1.242-1.464 1.242.463-.623-1.081.777.154V31.06l1.006-.618-2.248-.928h1.553l-.776-1.154 1.317.155-.852-1.703 1.629-.154.154-.534h1.09l-.933-.774-2.717-.309 3.807-.154 1.158-.311-3.026-.154 1.868-.309 1.312-.155 1.09-.225-3.959-.465 3.648-.154.934-.309-.467-.774-.935-.463 1.091-.309-.312-1.001 1.471-1.236.158-.617-2.719.463-2.402-.463 4.963-.384 1.246.31 1.316.382 2.018.927h-1.553l.467 1.237-2.559.227 2.248.927h-2.094l1.627.309-1.47.465 2.558.463-2.869.156 2.403.843-3.649-.309 1.246.618-1.783.465 1.473 1.083-2.25.379 1.783.62-2.248.309 3.801.465-3.647.309 2.094.463 1.396.69-1.865 1.083-1.16-.619-1.244-.464-.848 1.083 1.313.618.468.618-2.402-.309-1.09.309.776.381-1.243 1.083.778 1.081-1.088.846.777.772-1.16.618 1.16 1.001-1.472.618.154 1.237 1.318 1.154.932 1.701 2.092 1.773.779 1.927-1.555-.845-1.937-1.392-2.717-1.307-.93-.775 1.086-.618-1.086-1.153-1.939-1.548L97.1 36.15l2.25.309zM89.422 32.833l1.78-.618-1.935-.846 3.181.309 2.093.692-2.87.926-2.249-.463zM89.959 29.049l2.87-.38-1.158.69-1.712-.31zM93.295 29.514l3.029.774-.156.772-2.873-1.546zM75.379 45.179s-.468-.618 0-1.546c.466-.928.311-1.308.311-1.308l-1.556-.155 2.093-.773.777-.774 1.4.465-1.087.463-.313.928.469 1.309.932.464 1.162-.928 1.243-.154 1.007.463 1.553-.463-.466 1.082-1.242.309-.852-.463-1.398.154-.851.463-1.556.309-.466.536-1.16-.381z"/><path fill="#daaf53" d="M78.56 42.326l1.006-.775 1.088-.618h1.316l1.088.309.932-.309.54.929-1.006.308-2.094.309h-1.708l-1.162.535-.621.465-.155-1 .776-.153z"/><path d="M83.834 62.072s1.782-1.547 2.093-3.166c.311-1.617-.382-1.071.935-3.08 1.314-2.01 1.004-2.39 1.47-3.164.465-.774.935-2.547.935-2.547s-.314.847-1.09 2.083c-.777 1.239-1.473 2.082-1.627 2.856-.155.773-.933 1.462-1.087 2.236-.155.774-.31 1.928-.776 2.701-.467.772-.853 2.081-.853 2.081zM80.343 70.791s.239-.072 1.087-1.308c.851-1.239 1.627-2.701 1.627-2.701s-1.006.774-1.627 1.772c-.621 1-1.087 2.237-1.087 2.237zM62.961 50.115s-.465-1.39.155-1.235c.625.155 1.091-.381 1.246.927.155 1.309-.466 1.309 0 2.236.465.928 1.003 2.391 1.003 2.391h-1.158l-.622-1.462v-.928l-.624-1.929zM67.388 73.955s.385 1.381 1.162.998c.776-.379 1.397 0 1.397 0s-.622 1.085 0 1.702c.624.618 1.162.38 1.006 1.309s-.622 1.32.155 1.854c.776.537 1.327-.082 2.022.537.692.618 2.559.155 2.559.155s-.083.927-1.245 1.082c-1.158.154-2.404-.618-2.87 0-.466.618-1.004-1.546-1.317-.618-.311.927-.777 1.546-.777 1.546s.696-3.093-.466-2.009c-1.162 1.082-1.782 1.545-1.782 1.545s-.311-1.617-.622-2.546c-.311-.926-.466-.845-.155-1.927.311-1.081 1.087-1.01.932-1.854s.001-1.774.001-1.774zM71.485 61.3s.633.303 1.062.076c.429-.227.919-.403 1.097-.501.177-.102.583-.404.935-.227.354.176.431.276.431.276s-1.441.578-.457.578c.988 0 1.466-.025 1.466-.025s-.783.111-.733.337c.053.227.229.253.229.253s-.786-.176-.835.124c-.049.303.05.352-.227.227-.279-.125-.481-.125-.658.051-.177.176-.972.125-1.147.401-.176.276-.481.352-.531.504-.052.149-1.099.688-1.453.84-.355.152-.91.754-.985.477-.075-.276-.103-.313.202-.514.304-.201 1.199-.502 1.425-.779.227-.276.255-.428.255-.653 0-.227-.177-.804-.177-.981.001-.177.101-.464.101-.464zM69.05 66.726s.276-.729.379-.729c.099 0 .177.252.581.149.404-.099.643-.377.895-.225.251.151.531.704.531.704s.305.136-.025.463c-.329.328-.569.402-.771.554-.202.151-.378.276-.378.276s-.177-.554-.557-.78c-.379-.226-.732-.25-.732-.25l.077-.162zM71.941 65.594s.531-.853.857-.754c.329.102.644.377.998.403.354.025.506-.075.431.201-.078.277-.382.403-.583.528-.202.125-.643.227-.944.125-.305-.1-.759-.503-.759-.503zM68.214 68.698s-.152-.428.354-.303c.506.127 1.364-.1 1.338.226-.024.327-.478.429-.808.479-.329.049-.481.151-.658-.024-.176-.177-.226-.378-.226-.378zM117.234 66.666s1.59.32 2.395 0c.805-.321 1.447-.641 1.447-.641s.943 0 1.91.159c.965.161 1.752-.298 2.557.482.805.778 1.928 1.739.965 1.42-.965-.32-3.037-1.602-2.395-.32.643 1.279 2.051 1.739 1.268 2.061-.785.318-1.268 1.578-2.072.639s-1.428-1.26-2.553-1.739c-1.127-.482-1.105 0-2.072-.641-.965-.642-1.45-1.42-1.45-1.42z" fill="#f7dea4"/><path d="M88.816 90.166s-.345.641 1.106 0c1.447-.639 1.609-.318 1.609-.318s-1.448 2.678-1.289 4.119c.161 1.441 0 1.92 0 1.92l1.127-.479s-1.286 1.12-.804 2.7c.481 1.58 1.447.961 1.447.961s-1.771 2.359-1.125 2.998c.643.641 1.91-.617 1.91-.617s-2.534 1.76-.625 3.18c1.911 1.42 1.591 0 1.591 0s-.485 1.1-.485 1.74-.161.779.162 2.219c.323 1.441 1.749 2.383 1.749 2.383s-.944-.783-.783.799c.162 1.578 2.072-1.1 2.392.479.322 1.582.967 1.422.967 1.422s-2.576-.301-1.61 1.279c.965 1.58 1.29 2.541 1.29 2.541s-.665-.801.943-.961c1.609-.16 1.771-.16 1.771-.16s-2.898.822-1.771 1.76c1.129.939 2.234 1.74 2.234 1.74s-.646-.18 0-1.279c.643-1.1.48-1.582.48-1.582l2.234 1.582-1.105.16s1.105.158 1.908.959c.805.801-.482.781.645 1.42a75.04 75.04 0 0 0 1.428.801c.805 1.281-.16 1.42.162 2.221.32.801-1.105.021-1.59-.781-.482-.799-1.447-1.76-1.447-1.76s1.469 2.24 2.412 3.502c.945 1.26 1.268 1.418 1.268 1.418s-1.77 0-.805.959c.967.961 2.092 1.902 2.092 1.902s-2.07 0-3.197-1.902c-1.127-1.898-1.77-2.357-3.361-4.277-1.586-1.922-2.854-3.182-4.141-3.98-1.288-.801-2.695-2.682-2.555-1.582.14 1.102 0 3.803 0 3.803s-3.038-5.082-3.519-7.463c-.485-2.379-1.911-6.82-1.911-6.82s.622 3.82.622 5.242c0 1.42 0 2.197.966 3.799.966 1.6 2.714 5.881 2.714 5.881s-4.302-6.842-4.463-9.221c-.161-2.381-.481-3.619-.481-5.541 0-1.92-.484-3.66-.646-6.68-.162-3.021-.804-3.98-.162-5.562.646-1.582.646-4.924.646-4.924zM74.436 129.23s1.609-2.039 1.609-3.32-.342-1.299.14-2.24c.484-.941 1.127-2.701 1.127-2.701s-.804 2.881-.161 2.4c.644-.479.966-1.279.966-1.279s-1.932 1.9-.966 2.221c.966.318 1.609-.482 1.609-.482s-.783.643-.162 1.283c.625.639 1.106.961 1.106.961s-2.392-1.422-2.714-.162c-.32 1.262 1.447.779 1.447.779s-1.426 1.76-.159 1.121 2.072-1.121 2.072-1.121-1.45.82-.646 1.922c.805 1.1-.643.619.324 1.26.966.639 2.391 0 2.391 0s-.158 1.121.646.961c.805-.162 0 2.219 0 2.219s-.021-2.08-1.127-.961-1.587 1.762-1.587 1.762.301.801 1.587.318c1.289-.479 2.395-.961 2.395-.961s.783 2.061.159 1.742c-.621-.32-2.23-.801-2.553.16-.323.959-.783 1.441-.783 1.441s-1.311.799-2.094 0c-.783-.801-1.105-1.441-1.105-1.441s1.127-.141.481-1.1c-.643-.961-.643-1.262-.805-2.381-.158-1.121-.158-2.24-.643-1.6-.481.639-.944.639-.944.639l-1.61-1.44z" fill="#a66d3f"/><path d="M104.141 87.466s2.094 7.941 4.004 10.641c1.912 2.699 2.555 4.439 2.555 4.439l1.586 3.182s-4.141-3.822-5.105-5.883c-.967-2.059-3.039-6.359-2.877-5.398.162.96 2.393 6.498 3.197 7.941.805 1.439 1.91 3.98 1.91 3.98s-2.414-3.16-3.197-4.92c-.785-1.762-2.695-4.623-3.016-6.363-.322-1.739-.805-6.199-.805-6.199s2.23 5.26 2.23 3.98c0-1.28-.482-5.4-.482-5.4z" fill="#ce9b50"/><path d="M73.007 124.789s.021-1.898.323-2.699c.302-.801.302-1.738.302-1.738l.161-1.762.158-1.26.162-1.6.161-2.703v-2.539s.666 2.082 1.771 1.281c1.105-.799 2.072-1.74 2.072-1.74s-2.255 2.541-1.448 2.541c.805 0 1.286.299 1.286.299s-2.05 0-1.91 1.119c.14 1.121 0 2.061 0 2.061v1.92s-1.447-2.539-1.609-.32a395.743 395.743 0 0 1-.323 4.121l.805 1.121-.966 1.1-.481 1.92-.301 1.1-.163-2.222zM70.13 99.529s1.429-.441 2.072-.301c.643.139 1.59.301 1.59.301s-1.59 0-1.268.959c.32.961.805 1.74.805 1.74l.302 1.6.804 2.061.162 2.539-1.128-2.699-.782-2.061-1.128-2.219-.323-1.281-1.106-.639zM99.033 85.247l.322 2.379.321 1.42.806 1.28.299 1.26v2.381l.965.32.486 1.6.161 2.06.804 2.221-.646-.16-.805-2.221-.318-1.74-.162-1.28-.944-.32-.162-2.221v-1.579l-.967-1.12-.642-2.221.482-2.059zM107.822 110.809l2.073 2.861.642 2.219.805.64 1.59 1.6.32 1.262-1.285-1.743-1.108-.959-.964-1.419-.805-1.6-1.268-2.861z" fill="#f7dea4"/><path fill="#ce9b50" d="M77.793 93.967l.966-.941-1.128-.159 2.234-.96.966-.481-1.128 1.761-1.267 1.1 1.429 1.6.804-.961.324-.801.782.322-.621.639-.323 1.122.481.778.162.961.463 1.121-.162 1.1.323 1.439.482 1.1 1.127.801.162.959-1.128-.799-1.267-2.219-.481-1.92-.324-1.422-.32-1.281-1.45-1.258-.944-.482-.162-1.119zM85.456 127.65l-.162-1.9.323-.799 1.289-.64.622 1.439 1.288 1.422-1.288-.942-.945-1.119-.481.799.158 1.901.786 2.22-1.59-2.381zM91.531 81.267s1.91 2.719 1.749 1.278c-.161-1.439 0-4.299 0-4.299l.485-3.021s.158 11.463.643 7.481c.481-3.982.162-9.381.162-9.381s1.267 9.381.944 11.119a12.106 12.106 0 0 1-1.106 3.182l.323 1.9s-1.63-2.52-2.254-4.28c-.623-1.76-.946-3.979-.946-3.979zM91.046 145.75s2.072-1.416 3.038-1.416 1.268-.643 1.268-.643l1.447-.16.484-.959.783-.621-.162-.961 1.289-.316.162-.803-.162-.779.805.16.162 1.1.781-.939-.619 1.74-1.129.16-.805.799-.783 1.42-.16 1.281 1.105-.479 1.125-.643-1.287 1.441-.484.939-2.069 1.279-1.105.941-.646 1.119-1.286.32-.625.801-.481-.801-.646.939-.963.16.32-.939 2.233-.641.643-.801.966-.619.805-.961 1.105-1.121.162-1.416-1.588.799-1.289.939-1.268.799-1.771.641 2.395-1.92-1.75.161z"/><path d="M85.617 134.012s1.268-1.281 1.911-1.119c.643.158 1.289-.643 1.289-.643l1.426-1.258.966-.803.805-.318-.643 1.6-1.127.619-.944.641-.966 1.121 1.429 1.1.966.318h-1.59l-.643.961 1.749-.32-.783.961 1.91-.318-.323.777.162.961 1.268.16.323.641-2.072 1.1-.966.799.481-1.898-.481-1.279-1.429-1.102H87.21l.805-1.279-.966-.961-3.662 5.4.805-2.219 2.233-3.182-.808-.46z" fill="#daaf53"/><path fill="#f7dea4" d="M95.835 128.291l-.947-2.061-.319-1.441-.804-1.119-.805-.301-.323-1.76-.944-2.218 1.426 1.738.322 1.121 1.289 1.42.944 2.24.805 1.578 1.287 1.742-1.931-.939z"/><path fill="#daaf53" d="M83.064 152.914l.966-.482 1.264-.159.966.159 1.59.322.966-.641.162-.801.944-.158.805.479-.805.799.805.322-.966.478 1.127.299-1.752.323-2.09-.622-1.752-.318-1.264.158-.966-.158z"/><path fill="#3d5965" d="M91.472 162.121l.425-6.201.699-.316-.593 6.728-.531-.211zM75.287 160.371l1.55-5.189h.422l-1.441 5.293s.062 1.268.804-.104 1.593-4.664 1.593-4.664l-1.062 4.873 1.593-3.756.91-.105.105.951 1.699-.422.273-.846-2.289-.482h2.926l-.743 3.289-.273-1.434L78.427 159l-.531 1.793-1.696.42-1.444-.42.531-.422zM106.279 156.719l.424 4.873 1.592-.274-.531-4.703-.637-.424.742 4.707-.527.106-1.063-4.285zM109.42 155.814l.527 1.118.532.422.851 4.238 1.016.529.424-.635-1.44-4.554-.851-1.225-1.059.107z"/><path d="M70.388 178.742l2.078-5.398s.593.105 1.124 0c.528-.105.954-.211.954-.211s.469 2.172 1.273 2.277c.804.105 1.655-.105 1.655-.105l.528-1.539h.531s-.149 1.117.382 1.645.531.949.531.949l-1.019 3.336s-3.609-.107-4.945-.318.425-3.439.425-3.439l-1.972 3.123 1.655-4.555-.382-.213-2.441 4.662-.377-.214zM85.191 179.904l1.168-5.822h1.866s.106 1.223.106 2.277-.317 4.24-.317 4.24l-2.929-.105.106-.59z" fill="#9cadb8"/><path d="M73.926 166.055l2.411.15v.744h1.892v-.895l-.301-1.805-.305-1.723.606.15.301 1.279-.074 1.271.227 2.098-.908-.15-.984.15-.227.377h-.454l-.295.826.295.375-.674 1.047s.078.377-.376.377-.605-.156-.531-.527c.077-.367.379-.744.531-1.121.15-.375.681-1.277.681-1.277l-.833-.227-1.06 2.031s-1.202-.67-1.429-.076c-.227.596-.302 1.047-.302 1.047s-.984.068-.832-.602c.149-.672.832-1.646 1.36-1.572.528.074.826 0 .826 0l.755-.902-1.882-.074-.228-.521-.683-.225-.748-.227.372-.301.302-.676.757.15.681.451.454-.527-.531 1.053v.301l1.053.15.153-.599z" fill="#ce9b50"/><path fill="#ce9b50" d="M74.908 164.701l1.202-1.195.152 1.346-1.354-.151zM79.281 169.355l.301-.75s1.739-.293 1.512.377c-.226.668-1.813.373-1.813.373z"/><path d="M78.682 172.057l.22-1.58s1.593.227 2.42-.148a3.62 3.62 0 0 0 1.279-.973s.755-.148.528-.451c-.227-.299-.606-.75-.606-.75s1.587.232 1.06.902c-.528.67-1.06.895-1.208 1.195-.152.301.981-.225.376.225-.603.451-1.202.828-1.656.828-.453 0-1.891-.15-1.891-.15l-.149.828-.373.074zM72.193 162.303l-.606.902 1.361.525.826-.15.528-.826-.149-.375-.681.9-1.205-.224.152-.903-.226.151zM68.04 170.629s1.211.369 1.665-.602c.454-.971.982-1.949.982-1.949l.446-.451.606-.225s-1.202 1.723-1.202 2.324-.379 1.354-.379 1.354.074.301-.833.15c-.906-.15-1.285-.601-1.285-.601z" fill="#ce9b50"/><path d="M68.419 169.281s.528-1.504.982-1.955c.453-.451.832-.67.832-.67s-.528.896-.454 1.273c.075.375-.378.906-.606 1.352-.227.445-.453.746-.453.746l-.301-.746zM75.436 171.908s.373 0 .901-.98c.531-.977.758-1.42 1.286-2.172.531-.752.833-1.053.833-1.053s-.152.758-.528 1.578c-.379.82-.606 1.271-.606 1.646 0 .377.227.98.227.98h-2.113v.001z" fill="#ce9b50"/><path d="M78.828 164.926s.227 1.348.227 2.023v1.279s.829-.375 1.587-.375h1.656l.605-.602s.221-.225-.755-.15c-.978.074-1.432.143-1.205-.152.227-.293.305-.592.305-.592s-1.137 1.264-1.286.518c-.152-.744 0-.895 0-.895l.149-.604s-.074.529-.603.078c-.532-.452-.68-.528-.68-.528zM74.833 165.002l1.656.227-.301-2.174-.6.375.674-.826h1.134l.605 4.128-1.438-.076-.074-.828h-2.414l.758-.826zM84.484 163.883l-.901 2.322s3.621.377 5.127.377h3.769l.226-2.406h-5.202c-1.053 0-3.019-.293-3.019-.293zM88.332 168.756l-.454 2.625.379.375 5.809-.602 2.562-.227-.075-1.945s-3.087-.377-4.522-.377c-1.438 0-3.699.151-3.699.151zM94.746 164.25v2.406s1.96-.143 2.489.076c.531.217 1.658.143 1.658.143s-1.053-.744-1.809-.744c-.757 0-1.286-.303-1.286-.303l-.226-1.721-.826.143zM104.096 169.057l.832-.527 1.127.301 1.74.301 1.127 2.326s-.525.305-1.053.6-2.566.295-2.566.295l-.828-1.121-.605-.375-.676-1.799h.902v-.001zM106.658 166.656s-1.588-2.406-.303-2.406c1.287 0 2.488-.074 2.488-.074s-.227 1.201.078 1.652c.301.453.375.828.375.828s-1.354-1.805-1.354-1.127c0 .676.984.76.305 1.053s-1.589.074-1.589.074z" fill="#f7dea4"/><path d="M111.41 166.656s-.752-1.201-.447-1.73c.301-.523.9-1.043.9-1.043l1.436 2.924-1.889-.151zM112.922 168.453s2.262.221 2.488 1.348 0 1.279.453 1.656c.453.375.604.6.604.6s-2.109.301-2.41-.676c-.305-.979.148-1.572-.379-2.1-.53-.525-.756-.828-.756-.828zM116.166 168.529s.674.672 1.127 1.422c.453.752 1.133 1.957 1.133 1.957s-.074-.451-.832-.604c-.754-.15-1.127-.23-1.428-1.203-.303-.97 0-1.572 0-1.572z" fill="#d29557"/></g></svg>